<svg width="81" height="81" viewBox="0 0 81 81" fill="none" xmlns="http://www.w3.org/2000/svg">
<path d="M59.625 20.25C57.7642 20.25 56.25 18.7357 56.25 16.875C56.25 15.0142 57.7642 13.5 59.625 13.5C61.4857 13.5 63 15.0142 63 16.875C63 18.7357 61.4857 20.25 59.625 20.25ZM59.625 15.75C59.004 15.75 58.5 16.2562 58.5 16.875C58.5 17.4937 59.004 18 59.625 18C60.246 18 60.75 17.4937 60.75 16.875C60.75 16.2562 60.246 15.75 59.625 15.75Z" fill="#A4AFC1"/>
<path d="M19.6875 65.8125V24.1875L43.3125 15.1875V65.8125H19.6875Z" fill="#F3F3F1"/>
<path d="M63.5624 65.8125V35.4375L43.3124 26.5725V65.8125H63.5624Z" fill="#4467C0"/>
<path d="M43.3125 17.1157V15.1875L19.6875 24.1875V65.8125H24.75V24.1875L43.3125 17.1157Z" fill="#D5DBE1"/>
<path d="M43.3124 26.5725V65.8125H48.3749V28.7887L43.3124 26.5725Z" fill="#304C94"/>
<path d="M45 65.8125H41.625V17.6355L21.375 25.3508V65.8125H18V24.1875C18 23.4855 18.432 22.86 19.0867 22.6103L42.7118 13.6103C43.2293 13.4168 43.8143 13.4843 44.271 13.7993C44.7278 14.1143 45 14.6318 45 15.1875V65.8125Z" fill="black"/>
<path d="M65.25 67.5H61.875V36.5333L48.96 30.8048L50.328 27.72L64.2465 33.894C64.8562 34.1663 65.25 34.7693 65.25 35.4375V67.5Z" fill="black"/>
<path d="M24.75 27H28.125V33.75H24.75V27Z" fill="black"/>
<path d="M34.875 27H38.25V33.75H34.875V27Z" fill="black"/>
<path d="M24.75 40.5H28.125V47.25H24.75V40.5Z" fill="black"/>
<path d="M34.875 40.5H38.25V47.25H34.875V40.5Z" fill="black"/>
<path d="M24.75 54H28.125V60.75H24.75V54Z" fill="black"/>
<path d="M34.875 54H38.25V60.75H34.875V54Z" fill="black"/>
<path d="M48.3749 40.5H51.7499V47.25H48.3749V40.5Z" fill="black"/>
<path d="M55.125 40.5H58.5V47.25H55.125V40.5Z" fill="black"/>
<path d="M48.3749 54H51.7499V60.75H48.3749V54Z" fill="black"/>
<path d="M55.125 54H58.5V60.75H55.125V54Z" fill="black"/>
<path d="M4.5 64.125H76.5V67.5H4.5V64.125Z" fill="black"/>
</svg>
