<svg width="26" height="26" viewBox="0 0 26 26" fill="none" xmlns="http://www.w3.org/2000/svg">
<path d="M13.0184 16.6868C15.1433 16.6868 16.8658 15.0176 16.8658 12.9585C16.8658 10.8994 15.1433 9.2302 13.0184 9.2302C10.8935 9.2302 9.1709 10.8994 9.1709 12.9585C9.1709 15.0176 10.8935 16.6868 13.0184 16.6868Z" fill="white"/>
<path d="M18.9735 13.1665C18.9735 16.3533 16.3073 18.9362 13.0184 18.9362C9.72947 18.9362 7.06324 16.3533 7.06324 13.1665C7.06324 12.5954 7.14942 12.0438 7.30901 11.5227H5.54926V19.6158C5.54926 20.035 5.89184 20.3774 6.31077 20.3774H19.6523C20.0715 20.3774 20.4143 20.035 20.4143 19.6158V11.5227H18.7277C18.8871 12.0438 18.9735 12.5954 18.9735 13.1665Z" fill="white"/>
<path d="M17.3773 9.33872H19.5427C20.0172 9.33872 20.405 8.95091 20.405 8.47639V6.41182C20.405 5.93704 20.0172 5.54923 19.5427 5.54923H17.3773C16.9025 5.54923 16.5147 5.93704 16.5147 6.41182V8.47639C16.5144 8.95065 16.9025 9.33872 17.3773 9.33872Z" fill="white"/>
<path d="M13 0C5.82028 0 0 5.82028 0 13C0 20.1797 5.82028 26 13 26C20.1797 26 26 20.1797 26 13C26 5.82028 20.1797 0 13 0ZM20.1204 22.5797H5.87986C4.52679 22.5797 3.42056 21.5783 3.42056 20.1209V5.87959C3.42056 4.42173 4.52679 3.42056 5.87986 3.42056H20.1204C21.4732 3.42056 22.5797 4.42173 22.5797 5.87959V20.1209C22.5797 21.5783 21.4729 22.5797 20.1204 22.5797Z" fill="white"/>
</svg>
