<svg width="18" height="28" viewBox="0 0 18 28" fill="none" xmlns="http://www.w3.org/2000/svg">
<path d="M1.11559 13.3546L14.1901 0.280751C14.3772 0.0938457 14.5925 0 14.8355 0C15.0786 0 15.2938 0.0938457 15.4808 0.280751L16.8834 1.68362C17.0707 1.87062 17.1639 2.08544 17.1639 2.32894C17.1639 2.57245 17.0707 2.78726 16.8834 2.97427L5.85732 14.0003L16.8834 25.0265C17.0707 25.2135 17.1639 25.4287 17.1639 25.6715C17.1639 25.915 17.0707 26.1302 16.8834 26.3172L15.4807 27.7195C15.2937 27.9067 15.0785 28 14.8354 28C14.5924 28 14.3772 27.9065 14.1901 27.7195L1.11628 14.6456C0.929374 14.4587 0.835823 14.2434 0.835823 14.0003C0.835823 13.7572 0.928685 13.542 1.11559 13.3546Z" fill="#304C94"/>
</svg>
