<svg width="19" height="19" viewBox="0 0 19 19" fill="none" xmlns="http://www.w3.org/2000/svg">
<g clip-path="url(#clip0)">
<path d="M13.9779 1.85543C12.741 0.618348 11.2482 0 9.49999 0C7.75166 0 6.25908 0.618478 5.02212 1.85543C3.78521 3.09235 3.16669 4.58497 3.16669 6.3333C3.16669 7.23228 3.30273 7.97025 3.57477 8.54752L8.08977 18.122C8.21351 18.3939 8.40532 18.6083 8.66506 18.7648C8.92484 18.9215 9.20312 19 9.50008 19C9.79695 19 10.0754 18.9215 10.3351 18.7648C10.5949 18.6083 10.7906 18.3939 10.9226 18.122L15.4249 8.54752C15.6971 7.97025 15.8332 7.23223 15.8332 6.3333C15.8334 4.58497 15.215 3.09252 13.9779 1.85543ZM11.7388 8.57226C11.1204 9.19061 10.3742 9.49991 9.49999 9.49991C8.6258 9.49991 7.87956 9.19061 7.26099 8.57226C6.64251 7.9537 6.33321 7.20745 6.33321 6.33326C6.33321 5.45916 6.64251 4.71278 7.26099 4.09439C7.87956 3.47591 8.62593 3.16661 9.49999 3.16661C10.3742 3.16661 11.1204 3.47591 11.7388 4.09439C12.3573 4.71274 12.6666 5.45916 12.6666 6.33326C12.6666 7.20736 12.3573 7.95357 11.7388 8.57226Z" fill="white"/>
<g clip-path="url(#clip1)">
<path d="M209.129 117.475C207.992 114.049 200.758 109.002 187.432 102.346C183.822 100.248 178.678 97.397 172.022 93.78C165.36 90.163 159.313 86.83 153.892 83.784C148.46 80.739 143.371 77.789 138.616 74.938C137.856 74.367 135.477 72.704 131.48 69.938C127.479 67.18 124.105 65.133 121.34 63.798C118.581 62.471 115.867 61.803 113.202 61.803C109.396 61.803 104.642 64.517 98.934 69.938C93.226 75.366 87.99 81.262 83.234 87.644C78.477 94.023 73.432 99.919 68.108 105.344C62.776 110.771 58.395 113.482 54.973 113.482C53.255 113.482 51.113 113.003 48.546 112.058C45.98 111.107 44.028 110.292 42.688 109.635C41.36 108.964 39.081 107.636 35.843 105.631C32.599 103.632 30.795 102.537 30.415 102.346C4.34001 87.877 -18.023 71.317 -36.678 52.67C-55.327 34.012 -71.889 11.651 -86.354 -14.427C-86.544 -14.808 -87.641 -16.617 -89.638 -19.851C-91.638 -23.088 -92.971 -25.369 -93.637 -26.705C-94.303 -28.036 -95.112 -29.988 -96.062 -32.557C-97.012 -35.126 -97.489 -37.266 -97.489 -38.981C-97.489 -42.405 -94.776 -46.785 -89.351 -52.115C-83.927 -57.442 -78.025 -62.488 -71.651 -67.243C-65.272 -71.998 -59.376 -77.234 -53.95 -82.942C-48.526 -88.653 -45.814 -93.409 -45.814 -97.215C-45.814 -99.878 -46.48 -102.593 -47.811 -105.352C-49.143 -108.117 -51.189 -111.491 -53.95 -115.49C-56.712 -119.487 -58.377 -121.864 -58.949 -122.629C-61.801 -127.384 -64.748 -132.475 -67.797 -137.9C-70.846 -143.324 -74.174 -149.37 -77.792 -156.031C-81.407 -162.689 -84.26 -167.83 -86.356 -171.446C-93.014 -184.767 -98.057 -192.003 -101.484 -193.141C-102.817 -193.712 -104.817 -194 -107.479 -194C-112.621 -194 -119.329 -193.05 -127.608 -191.144C-135.89 -189.241 -142.407 -187.245 -147.166 -185.148C-156.683 -181.153 -166.77 -169.543 -177.43 -150.322C-187.137 -132.434 -191.99 -114.729 -191.99 -97.22C-191.99 -92.085 -191.657 -87.089 -190.991 -82.231C-190.325 -77.378 -189.135 -71.905 -187.42 -65.813C-185.708 -59.723 -184.327 -55.199 -183.283 -52.253C-182.238 -49.305 -180.287 -44.024 -177.431 -36.408C-174.579 -28.794 -172.864 -24.133 -172.293 -22.42C-165.632 -3.76599 -157.733 12.887 -148.598 27.544C-133.568 51.906 -113.057 77.083 -87.077 103.065C-61.096 129.045 -35.924 149.555 -11.56 164.591C3.09502 173.725 19.754 181.623 38.405 188.289C40.119 188.857 44.78 190.568 52.391 193.43C60.005 196.284 65.288 198.235 68.236 199.282C71.185 200.33 75.71 201.712 81.795 203.427C87.893 205.142 93.361 206.332 98.214 207.003C103.07 207.66 108.067 207.999 113.203 207.999C130.711 207.999 148.417 203.143 166.308 193.437C185.527 182.781 197.134 172.692 201.131 163.168C203.233 158.414 205.224 151.895 207.127 143.613C209.036 135.335 209.984 128.628 209.984 123.487C209.99 120.814 209.703 118.819 209.129 117.475Z" fill="black"/>
</g>
</g>
<defs>
<clipPath id="clip0">
<rect width="19" height="19" fill="white"/>
</clipPath>
<clipPath id="clip1">
<rect width="401.998" height="401.998" fill="white" transform="translate(-192 -194)"/>
</clipPath>
</defs>
</svg>
