<svg width="18" height="28" viewBox="0 0 18 28" fill="none" xmlns="http://www.w3.org/2000/svg">
<path d="M16.8844 13.3546L3.80995 0.280751C3.62284 0.0938457 3.40754 0 3.16452 0C2.92141 0 2.7062 0.0938457 2.51919 0.280751L1.11661 1.68362C0.929316 1.87062 0.83606 2.08544 0.83606 2.32894C0.83606 2.57245 0.929316 2.78726 1.11661 2.97427L12.1427 14.0003L1.11661 25.0265C0.929316 25.2135 0.83606 25.4287 0.83606 25.6715C0.83606 25.915 0.929316 26.1302 1.11661 26.3172L2.51929 27.7195C2.7063 27.9067 2.9215 28 3.16462 28C3.40764 28 3.62284 27.9065 3.80995 27.7195L16.8837 14.6456C17.0706 14.4587 17.1642 14.2434 17.1642 14.0003C17.1642 13.7572 17.0713 13.542 16.8844 13.3546Z" fill="#304C94"/>
</svg>
