<svg width="102" height="102" viewBox="0 0 102 102" fill="none" xmlns="http://www.w3.org/2000/svg">
<path fill-rule="evenodd" clip-rule="evenodd" d="M1.75101 18.8801V63.4317H64.5551L69.7404 52.225L75.0083 63.5143H90.7197V18.8775L1.75101 18.8801Z" fill="#CC2229"/>
<path fill-rule="evenodd" clip-rule="evenodd" d="M6.53944 74.6299C5.82506 74.349 5.43083 74.2219 4.70058 74.2219C3.91318 74.2219 2.9882 74.5019 2.9882 75.5285C2.9882 77.4096 7.19983 76.9741 7.19983 80.2031C7.19983 82.2949 5.58429 83.123 3.61844 83.123C2.93158 83.123 2.25689 82.9288 1.61131 82.7156L1.75207 81.4112C2.2299 81.6086 3.07181 81.8874 3.78618 81.8874C4.58787 81.8874 5.71235 81.4387 5.71235 80.2894C5.71235 78.096 1.50018 78.7019 1.50018 75.6539C1.50018 73.9113 2.87443 72.9864 4.64343 72.9864C5.28901 72.9864 6.06266 73.098 6.73576 73.3356L6.53944 74.6299ZM13.1106 73.1552H18.6002V74.3902H14.5156V77.2541H18.2361V78.4913H14.5156V81.7202H18.6002V82.9564H13.1106V73.1552ZM30.844 74.7696C30.2317 74.4075 29.5325 74.2182 28.821 74.2219C26.5631 74.2219 25.0597 75.8507 25.0597 78.0542C25.0597 80.3587 26.7176 81.8874 28.7517 81.8874C29.455 81.8874 30.3943 81.7054 30.888 81.4112L30.9695 82.7733C30.2265 83.0802 29.3137 83.1225 28.739 83.1225C25.636 83.1225 23.5717 81.1297 23.5717 78.0129C23.5717 74.9929 25.7619 72.9869 28.7523 72.9869C29.5116 72.9869 30.2556 73.0985 30.9568 73.4076L30.844 74.7696ZM44.9119 78.8987C44.9119 81.6509 43.5229 83.1225 41.1088 83.1225C38.6942 83.1225 37.3025 81.6509 37.3025 78.8987V73.1552H38.7069V78.7135C38.7069 80.5958 39.2959 81.8874 41.1088 81.8874C42.918 81.8874 43.5075 80.5958 43.5075 78.7135V73.1552H44.9114V78.8987H44.9119ZM53.3807 74.3902H54.7274C56.0181 74.3902 56.6922 74.9533 56.6922 75.837C56.6922 76.7773 55.908 77.3668 54.5735 77.3668H53.3807V74.3902ZM51.9763 82.9564H53.3807V78.6019H54.221C54.9682 78.6019 55.4291 78.6019 55.8641 79.5559L57.3659 82.9564H58.9666L57.1124 79.0517C56.8055 78.4479 56.5954 78.2373 56.1573 78.069V78.042C57.296 77.8436 58.1808 77.0043 58.1808 75.8073C58.1808 73.4652 56.3123 73.1552 54.3756 73.1552H51.9758V82.9564H51.9763ZM65.2706 73.1552H66.675V82.9564H65.2706V73.1552ZM74.6363 74.3902H71.5904V73.1552H79.0876V74.3902H76.0396V82.9564H74.6363V74.3902ZM86.4589 78.8553L82.6272 73.1552H84.2666L87.1897 77.5499L90.0387 73.1552H91.6813L87.8633 78.8553V82.9564H86.4589V78.8553Z" fill="black"/>
<path fill-rule="evenodd" clip-rule="evenodd" d="M82.7431 52.216L71.9502 27.5775L71.9544 27.5759H71.9502V27.5733L71.9491 27.5759H67.6142L57.0653 52.225H61.714L69.7446 32.8962L78.1192 52.225L82.7431 52.216ZM26.3541 41.6666C29.7413 40.4008 31.3621 37.6036 31.3229 34.7525C31.2626 30.426 27.8685 27.405 23.0679 27.405H12.6873V52.1859H16.4682V31.0234H22.8526C24.9925 31.0234 27.2912 32.1368 27.3283 34.8054C27.3611 37.1819 25.5868 38.6657 22.5811 38.7942L22.5229 38.7969L20.2327 38.8159L27.858 52.225L32.3236 52.2155C32.3236 52.216 28.6549 45.7337 26.3541 41.6666ZM36.4474 33.8042C36.4474 38.7382 41.3443 40.1309 45.1516 41.2035C49.1183 42.3248 50.4994 43.589 50.4994 45.5051C50.4994 48.7013 47.2577 49.2003 45.2522 49.2003C42.4989 49.2003 40.2277 48.4314 38.0052 47.0593L36.1092 50.2729C38.9128 52.0017 41.8189 52.8076 45.2522 52.8076C50.9873 52.8076 54.7973 49.8364 54.7973 45.2374C54.7973 40.1013 50.1628 38.6799 46.2661 37.5782C42.2968 36.4564 40.7447 35.5081 40.7447 33.591C40.7447 30.6879 44.2981 30.4054 45.5707 30.4054C47.5731 30.4054 50.1173 31.0764 51.6244 31.8537L53.2193 28.7126C51.1878 27.6616 48.0705 26.9584 45.4644 26.9584C39.9192 26.9594 36.4474 29.4841 36.4474 33.8042Z" fill="black"/>
<path fill-rule="evenodd" clip-rule="evenodd" d="M93.1322 68.8446H96.2951V69.3113H94.9769V72.7397H94.4499V69.3113H93.1322V68.8446ZM99.9897 72.7397V70.44C99.9897 70.3252 100.001 69.8314 100.001 69.4684H99.9897L98.8943 72.7397H98.3736L97.2782 69.4737H97.2671C97.2671 69.8314 97.2782 70.3252 97.2782 70.44V72.7397H96.7676V68.8446H97.5222L98.6345 72.1375H98.6451L99.7521 68.8446H100.501V72.7397H99.9897Z" fill="black"/>
</svg>
