<svg width="17" height="17" viewBox="0 0 17 17" fill="none" xmlns="http://www.w3.org/2000/svg">
<path d="M16.6221 14.7737L13.1179 11.2697C13.9624 10.0506 14.3849 8.6916 14.3849 7.19336C14.3849 6.21942 14.1958 5.28795 13.8176 4.39917C13.4397 3.51024 12.9288 2.74405 12.2852 2.10042C11.6416 1.45679 10.8755 0.945913 9.98675 0.567971C9.09772 0.189922 8.16632 0.000915527 7.19238 0.000915527C6.2185 0.000915527 5.28703 0.189922 4.39825 0.567971C3.50932 0.945913 2.74314 1.45679 2.0995 2.10042C1.4558 2.74405 0.944997 3.51038 0.56702 4.39917C0.189007 5.28805 0 6.21942 0 7.19336C0 8.16724 0.189007 9.09839 0.56702 9.98742C0.944961 10.8762 1.4558 11.6423 2.0995 12.2859C2.74314 12.9298 3.50947 13.4404 4.39825 13.8186C5.28714 14.1966 6.2185 14.3855 7.19238 14.3855C8.69094 14.3855 10.0497 13.963 11.2689 13.1186L14.7731 16.6125C15.0183 16.8713 15.3243 17.0007 15.6924 17.0007C16.0466 17.0007 16.3533 16.8713 16.6119 16.6125C16.8706 16.3538 17 16.0473 17 15.6931C17.0001 15.3324 16.8741 15.0258 16.6221 14.7737ZM10.4259 10.4265C9.53027 11.3223 8.45251 11.7701 7.19238 11.7701C5.93245 11.7701 4.8547 11.3222 3.95901 10.4265C3.06332 9.5309 2.6155 8.45329 2.6155 7.19315C2.6155 5.93322 3.06343 4.85529 3.95901 3.95978C4.85452 3.06406 5.93245 2.61627 7.19238 2.61627C8.45237 2.61627 9.53012 3.06424 10.4259 3.95978C11.3216 4.85529 11.7695 5.93322 11.7695 7.19315C11.7695 8.45329 11.3215 9.5309 10.4259 10.4265Z" fill="white"/>
</svg>
