<svg width="15" height="15" viewBox="0 0 15 15" fill="none" xmlns="http://www.w3.org/2000/svg">
<g clip-path="url(#clip0)">
<path d="M14.9684 11.6223C14.926 11.4944 14.6561 11.3061 14.1588 11.0577C14.0241 10.9795 13.8322 10.8731 13.5838 10.7381C13.3352 10.6031 13.1096 10.4788 12.9073 10.3651C12.7046 10.2515 12.5148 10.1414 12.3373 10.035C12.309 10.0137 12.2202 9.95169 12.0711 9.84848C11.9218 9.74557 11.7959 9.66919 11.6927 9.61938C11.5897 9.56986 11.4885 9.54494 11.389 9.54494C11.247 9.54494 11.0696 9.6462 10.8566 9.84848C10.6437 10.051 10.4483 10.271 10.2708 10.5092C10.0933 10.7472 9.90508 10.9672 9.70642 11.1696C9.50746 11.3721 9.34399 11.4733 9.2163 11.4733C9.1522 11.4733 9.07227 11.4554 8.97649 11.4201C8.88074 11.3846 8.80791 11.3542 8.75791 11.3297C8.70835 11.3047 8.62332 11.2551 8.50249 11.1803C8.38145 11.1057 8.31413 11.0649 8.29996 11.0577C7.327 10.5179 6.49256 9.89994 5.79647 9.20415C5.10061 8.50795 4.48262 7.67358 3.94288 6.70052C3.93579 6.6863 3.89486 6.6188 3.82034 6.49813C3.74572 6.37735 3.69598 6.29223 3.67113 6.24238C3.64628 6.19272 3.61609 6.11988 3.58064 6.02402C3.54519 5.92816 3.52739 5.84831 3.52739 5.78432C3.52739 5.65656 3.62863 5.49312 3.83105 5.29424C4.03344 5.09547 4.25367 4.90719 4.4915 4.72976C4.72953 4.55234 4.94953 4.35696 5.15199 4.14398C5.35438 3.93088 5.45558 3.75341 5.45558 3.6114C5.45558 3.51203 5.43073 3.41073 5.38106 3.30778C5.33136 3.20461 5.25502 3.07871 5.15199 2.92949C5.04893 2.78035 4.9868 2.69166 4.96546 2.66311C4.85904 2.48568 4.74908 2.29572 4.63531 2.09329C4.52154 1.8909 4.39736 1.66531 4.26236 1.41676C4.12747 1.16833 4.02102 0.976497 3.94281 0.841571C3.69437 0.344517 3.5062 0.0745153 3.37833 0.0320524C3.32859 0.0107463 3.25396 0 3.15463 0C2.96277 0 2.71247 0.0354479 2.40355 0.106568C2.09451 0.177575 1.85134 0.252053 1.67377 0.3303C1.31865 0.479368 0.94227 0.912579 0.544507 1.62978C0.182304 2.29725 0.0012207 2.95789 0.0012207 3.61121C0.0012207 3.80282 0.0136461 3.98924 0.038497 4.17051C0.0633479 4.35159 0.107751 4.55581 0.171744 4.78312C0.235625 5.01036 0.287155 5.17917 0.32611 5.28909C0.365103 5.39909 0.437902 5.59615 0.54447 5.88033C0.650888 6.16443 0.714881 6.33835 0.736187 6.40227C0.984733 7.09832 1.27947 7.7197 1.62033 8.26661C2.18116 9.17564 2.9465 10.1151 3.9159 11.0846C4.88535 12.054 5.82461 12.8193 6.73372 13.3803C7.28055 13.7212 7.90216 14.0159 8.59809 14.2646C8.66205 14.2858 8.83597 14.3496 9.11996 14.4564C9.40407 14.5629 9.60119 14.6357 9.71119 14.6748C9.82123 14.7139 9.99008 14.7654 10.2171 14.8294C10.4447 14.8934 10.6487 14.9378 10.8298 14.9629C11.011 14.9874 11.1974 15 11.3891 15C12.0424 15 12.703 14.8188 13.3706 14.4567C14.0877 14.0591 14.5208 13.6826 14.67 13.3272C14.7484 13.1498 14.8227 12.9066 14.8937 12.5976C14.965 12.2887 15.0003 12.0384 15.0003 11.8466C15.0005 11.7468 14.9898 11.6724 14.9684 11.6223Z" fill="white"/>
</g>
<defs>
<clipPath id="clip0">
<rect width="15" height="15" fill="white"/>
</clipPath>
</defs>
</svg>
