<svg width="88" height="88" viewBox="0 0 88 88" fill="none" xmlns="http://www.w3.org/2000/svg">
<path d="M65.7625 8.84033L67.4909 7.11185L70.9479 10.5688L69.2194 12.2973L65.7625 8.84033Z" fill="#A4AFC1"/>
<path d="M75.7 18.7794L77.4284 17.051L80.8854 20.5079L79.1569 22.2364L75.7 18.7794Z" fill="#A4AFC1"/>
<path d="M75.2677 10.5697L78.7247 7.11276L80.4531 8.84124L76.9962 12.2982L75.2677 10.5697Z" fill="#A4AFC1"/>
<path d="M51.9444 61.7222H16.5V53.1667C16.5 49.1162 19.7829 45.8333 23.8333 45.8333H44.6111C48.6616 45.8333 51.9444 49.1162 51.9444 53.1667V61.7222Z" fill="#F3F3F1"/>
<path d="M34.2222 37.2778C39.2848 37.2778 43.3889 33.1737 43.3889 28.1111C43.3889 23.0485 39.2848 18.9444 34.2222 18.9444C29.1596 18.9444 25.0555 23.0485 25.0555 28.1111C25.0555 33.1737 29.1596 37.2778 34.2222 37.2778Z" fill="#F3F3F1"/>
<path d="M43.3644 27.6222C39.2088 28.2578 36.6666 23.8333 36.6666 23.8333C32.3644 27.8422 26.9133 27.7444 25.08 27.5733C25.3488 22.7578 29.3333 18.9444 34.2222 18.9444C39.1111 18.9444 43.1199 22.7822 43.3644 27.6222Z" fill="#4467C0"/>
<path d="M57.4445 71.5C65.2071 71.5 71.5 65.2071 71.5 57.4444C71.5 49.6818 65.2071 43.3889 57.4445 43.3889C49.6818 43.3889 43.3889 49.6818 43.3889 57.4444C43.3889 65.2071 49.6818 71.5 57.4445 71.5Z" fill="#4467C0"/>
<path d="M48.8889 57.4444C48.8889 50.6244 53.7485 44.9411 60.1945 43.6627C59.3047 43.4867 58.3856 43.3889 57.4445 43.3889C49.6809 43.3889 43.3889 49.6809 43.3889 57.4444C43.3889 65.208 49.6809 71.5 57.4445 71.5C58.3856 71.5 59.3047 71.4047 60.1945 71.2262C53.7485 69.9478 48.8889 64.2644 48.8889 57.4444Z" fill="#304C94"/>
<path d="M29.3333 45.8333H23.8333C19.7829 45.8333 16.5 49.1162 16.5 53.1667V61.7222H22V53.1667C22 49.1162 25.2829 45.8333 29.3333 45.8333Z" fill="#D5DBE1"/>
<path d="M30.5555 28.1111C30.5555 24.0142 33.2615 20.5847 36.9722 19.4113C36.0995 19.1351 35.1878 18.9444 34.2222 18.9444C29.1598 18.9444 25.0555 23.0487 25.0555 28.1111C25.0555 33.1736 29.1598 37.2778 34.2222 37.2778C35.1878 37.2778 36.0995 37.0871 36.9722 36.8109C33.2615 35.6376 30.5555 32.208 30.5555 28.1111Z" fill="#D5DBE1"/>
<path d="M36.9673 19.4064C36.0971 19.1302 35.1853 18.9444 34.2222 18.9444C29.3333 18.9444 25.3488 22.7578 25.08 27.5733C26.0944 27.6687 28.2308 27.7127 30.6557 27.0771C31.0615 23.4398 33.5768 20.4796 36.9673 19.4064Z" fill="#304C94"/>
<path d="M42.5285 29.5191C39.6905 29.5191 37.5883 27.8227 36.3514 26.4513C31.7387 29.722 26.5198 29.5484 24.9089 29.3993L25.2512 25.7498C26.6714 25.8842 31.6116 26.0431 35.4176 22.4938C35.8258 22.1124 36.3832 21.9389 36.9405 22.022C37.4929 22.1051 37.9769 22.4351 38.258 22.9216C38.2727 22.946 40.2429 26.224 43.0907 25.8109L43.6456 29.4336C43.2594 29.4922 42.8878 29.5191 42.5285 29.5191Z" fill="black"/>
<path d="M34.2222 39.1111C28.1575 39.1111 23.2222 34.1758 23.2222 28.1111C23.2222 22.0464 28.1575 17.1111 34.2222 17.1111C40.2868 17.1111 45.2222 22.0464 45.2222 28.1111C45.2222 34.1758 40.2868 39.1111 34.2222 39.1111ZM34.2222 20.7778C30.1791 20.7778 26.8888 24.068 26.8888 28.1111C26.8888 32.1542 30.1791 35.4444 34.2222 35.4444C38.2653 35.4444 41.5555 32.1542 41.5555 28.1111C41.5555 24.068 38.2653 20.7778 34.2222 20.7778Z" fill="black"/>
<path d="M57.4444 73.3333C48.6835 73.3333 41.5555 66.2053 41.5555 57.4444C41.5555 48.6836 48.6835 41.5556 57.4444 41.5556C66.2053 41.5556 73.3333 48.6836 73.3333 57.4444C73.3333 66.2053 66.2053 73.3333 57.4444 73.3333ZM57.4444 45.2222C50.7051 45.2222 45.2222 50.7051 45.2222 57.4444C45.2222 64.1838 50.7051 69.6667 57.4444 69.6667C64.1838 69.6667 69.6667 64.1838 69.6667 57.4444C69.6667 50.7051 64.1838 45.2222 57.4444 45.2222Z" fill="black"/>
<path d="M55 63.5556C54.5135 63.5556 54.0467 63.3624 53.7044 63.0178L48.8156 58.1289L51.4091 55.5353L54.912 59.0382L62.1769 50.7369L64.9367 53.1496L56.3811 62.9273C56.0462 63.3087 55.5695 63.536 55.0611 63.5531C55.0415 63.5556 55.0195 63.5556 55 63.5556Z" fill="black"/>
<path d="M36.6666 63.5556H16.5C15.488 63.5556 14.6666 62.7342 14.6666 61.7222V53.1667C14.6666 48.1116 18.7782 44 23.8333 44H39.16V47.6667H23.8333C20.7997 47.6667 18.3333 50.1331 18.3333 53.1667V59.8889H36.6666V63.5556Z" fill="black"/>
</svg>
