<svg width="83" height="83" viewBox="0 0 83 83" fill="none" xmlns="http://www.w3.org/2000/svg">
<path d="M54.1805 29.9722C52.2738 29.9722 50.7222 28.4206 50.7222 26.5139C50.7222 24.6072 52.2738 23.0556 54.1805 23.0556C56.0872 23.0556 57.6388 24.6072 57.6388 26.5139C57.6388 28.4206 56.0872 29.9722 54.1805 29.9722ZM54.1805 25.3611C53.5465 25.3611 53.0277 25.8776 53.0277 26.5139C53.0277 27.1502 53.5465 27.6667 54.1805 27.6667C54.8145 27.6667 55.3333 27.1502 55.3333 26.5139C55.3333 25.8776 54.8145 25.3611 54.1805 25.3611Z" fill="#A4AFC1"/>
<path d="M65.1319 67.4375H45.5347C44.262 67.4375 43.2291 66.4046 43.2291 65.1319V54.7569C43.2291 53.4843 44.262 52.4514 45.5347 52.4514H65.1319C66.4046 52.4514 67.4375 53.4843 67.4375 54.7569V65.1319C67.4375 66.4046 66.4046 67.4375 65.1319 67.4375Z" fill="#4467C0"/>
<path d="M25.3611 25.9375C28.2261 25.9375 30.5486 23.615 30.5486 20.75C30.5486 17.885 28.2261 15.5625 25.3611 15.5625C22.4961 15.5625 20.1736 17.885 20.1736 20.75C20.1736 23.615 22.4961 25.9375 25.3611 25.9375Z" fill="#F3F3F1"/>
<path d="M35.1597 38.6181C35.1597 34.7978 32.0634 31.7014 28.2431 31.7014H22.4792C18.6589 31.7014 15.5625 34.7978 15.5625 38.6181V48.1446C15.5625 49.0184 16.0559 49.8161 16.8375 50.2058L18.8986 51.2364C19.6802 51.626 20.1736 52.426 20.1736 53.2975V65.1296C20.1736 66.4023 21.2065 67.4352 22.4792 67.4352H28.2431C29.5157 67.4352 30.5486 66.4023 30.5486 65.1296V53.2975C30.5486 52.4237 31.042 51.626 31.8236 51.2364L33.8848 50.2058C34.6663 49.8161 35.1597 49.0161 35.1597 48.1446V38.6181Z" fill="#F3F3F1"/>
<path d="M25.3611 20.75C25.3611 18.8341 26.4101 17.181 27.9548 16.2818C27.1894 15.8369 26.311 15.5625 25.3611 15.5625C22.4953 15.5625 20.1736 17.8842 20.1736 20.75C20.1736 23.6158 22.4953 25.9375 25.3611 25.9375C26.311 25.9375 27.1894 25.6631 27.9548 25.2182C26.4101 24.319 25.3611 22.6659 25.3611 20.75Z" fill="#D5DBE1"/>
<path d="M25.3611 65.1319V53.2998C25.3611 52.426 24.8677 51.6283 24.0861 51.2387L22.025 50.2081C21.2434 49.8161 20.75 49.0184 20.75 48.1446V38.6181C20.75 34.7978 23.8464 31.7014 27.6667 31.7014H22.4792C18.6589 31.7014 15.5625 34.7978 15.5625 38.6181V48.1446C15.5625 49.0184 16.0559 49.8161 16.8375 50.2058L18.8986 51.2364C19.6802 51.626 20.1736 52.426 20.1736 53.2975V65.1296C20.1736 66.4023 21.2065 67.4352 22.4792 67.4352H27.6667C26.394 67.4375 25.3611 66.4046 25.3611 65.1319Z" fill="#D5DBE1"/>
<path d="M48.4166 65.1319V54.7569C48.4166 53.4843 49.4495 52.4514 50.7222 52.4514H45.5347C44.262 52.4514 43.2291 53.4843 43.2291 54.7569V65.1319C43.2291 66.4046 44.262 67.4375 45.5347 67.4375H50.7222C49.4495 67.4375 48.4166 66.4046 48.4166 65.1319Z" fill="#304C94"/>
<path d="M65.1319 69.1667H45.5347C43.3099 69.1667 41.5 67.3568 41.5 65.1319V54.7569C41.5 52.5321 43.3099 50.7222 45.5347 50.7222H65.1319C67.3568 50.7222 69.1667 52.5321 69.1667 54.7569V65.1319C69.1667 67.3568 67.3568 69.1667 65.1319 69.1667ZM45.5347 54.1806C45.2166 54.1806 44.9583 54.4388 44.9583 54.7569V65.1319C44.9583 65.4501 45.2166 65.7083 45.5347 65.7083H65.1319C65.4501 65.7083 65.7083 65.4501 65.7083 65.1319V54.7569C65.7083 54.4388 65.4501 54.1806 65.1319 54.1806H45.5347Z" fill="black"/>
<path d="M62.2499 52.4514H58.7916V48.9931C58.7916 48.6749 58.5334 48.4167 58.2152 48.4167H52.4513C52.1332 48.4167 51.875 48.6749 51.875 48.9931V52.4514H48.4166V48.9931C48.4166 46.7682 50.2265 44.9583 52.4513 44.9583H58.2152C60.4401 44.9583 62.2499 46.7682 62.2499 48.9931V52.4514Z" fill="black"/>
<path d="M43.2291 57.6389H67.4375V61.0972H43.2291V57.6389Z" fill="black"/>
<path d="M53.6041 55.3333H57.0625V63.4028H53.6041V55.3333Z" fill="black"/>
<path d="M25.3611 27.6667C21.5477 27.6667 18.4445 24.5634 18.4445 20.75C18.4445 16.9366 21.5477 13.8333 25.3611 13.8333C29.1745 13.8333 32.2778 16.9366 32.2778 20.75C32.2778 24.5634 29.1745 27.6667 25.3611 27.6667ZM25.3611 17.2917C23.4544 17.2917 21.9028 18.8433 21.9028 20.75C21.9028 22.6567 23.4544 24.2083 25.3611 24.2083C27.2678 24.2083 28.8195 22.6567 28.8195 20.75C28.8195 18.8433 27.2678 17.2917 25.3611 17.2917Z" fill="black"/>
<path d="M28.2431 69.1667H22.4792C20.2543 69.1667 18.4445 67.3568 18.4445 65.1319V53.2998C18.4445 53.0808 18.3223 52.8825 18.1263 52.7834L16.0628 51.7528C14.6887 51.0657 13.8334 49.6824 13.8334 48.1446V38.6181C13.8334 33.8502 17.7136 29.9722 22.4792 29.9722H28.2431C33.0087 29.9722 36.8889 33.8502 36.8889 38.6181V48.1446C36.8889 49.6824 36.0336 51.0657 34.6572 51.7528L32.5937 52.7834C32.4 52.8825 32.2778 53.0808 32.2778 53.2998V65.1319C32.2778 67.3568 30.468 69.1667 28.2431 69.1667ZM22.4792 33.4306C19.6203 33.4306 17.2917 35.7569 17.2917 38.6181V48.1446C17.2917 48.3636 17.4139 48.5619 17.6099 48.6611L19.6733 49.6916C21.0475 50.3787 21.9028 51.762 21.9028 53.2998V65.1319C21.9028 65.4501 22.161 65.7083 22.4792 65.7083H28.2431C28.5613 65.7083 28.8195 65.4501 28.8195 65.1319V53.2998C28.8195 51.762 29.6749 50.3787 31.0513 49.6916L33.1147 48.6611C33.3107 48.5642 33.4329 48.3659 33.4329 48.1446V38.6181C33.4329 35.7569 31.1043 33.4306 28.2454 33.4306H22.4792Z" fill="black"/>
</svg>
