<svg width="98" height="98" viewBox="0 0 98 98" fill="none" xmlns="http://www.w3.org/2000/svg">
<path d="M12.25 51.7222C9.99868 51.7222 8.16663 49.8902 8.16663 47.6389C8.16663 45.3876 9.99868 43.5556 12.25 43.5556C14.5012 43.5556 16.3333 45.3876 16.3333 47.6389C16.3333 49.8902 14.5012 51.7222 12.25 51.7222ZM12.25 46.2778C11.4986 46.2778 10.8888 46.8903 10.8888 47.6389C10.8888 48.3875 11.4986 49 12.25 49C13.0013 49 13.6111 48.3875 13.6111 47.6389C13.6111 46.8903 13.0013 46.2778 12.25 46.2778Z" fill="#A4AFC1"/>
<path d="M68.0556 23.8194C68.0556 20.8114 65.6192 18.375 62.6112 18.375H34.0278C31.0198 18.375 28.5834 20.8114 28.5834 23.8194V74.1806C28.5834 77.1886 31.0198 79.625 34.0278 79.625H62.6112C65.6192 79.625 68.0556 77.1886 68.0556 74.1806V23.8194Z" fill="#F3F3F1"/>
<path d="M35.3889 18.375C37.6429 18.375 39.4722 20.2043 39.4722 22.4583C39.4722 23.961 40.6917 25.1806 42.1944 25.1806H54.4444C55.9471 25.1806 57.1666 23.961 57.1666 22.4583C57.1666 20.2043 58.996 18.375 61.25 18.375H35.3889Z" fill="#4467C0"/>
<path d="M56.4861 66.0139H41.5139V43.5556L56.4861 40.1528V66.0139Z" fill="#4467C0"/>
<path d="M56.4861 41.5438V40.1528L41.5139 43.5556V66.0139H47.6389V43.5556L56.4861 41.5438Z" fill="#304C94"/>
<path d="M35.3889 74.1806V23.8194C35.3889 20.8114 37.8253 18.375 40.8334 18.375H34.7084C31.7003 18.375 29.2639 20.8114 29.2639 23.8194V74.1806C29.2639 77.1886 31.7003 79.625 34.7084 79.625H40.8334C37.8253 79.625 35.3889 77.1886 35.3889 74.1806Z" fill="#D5DBE1"/>
<path d="M46.2778 22.4583C46.2778 20.2043 44.4485 18.375 42.1945 18.375H36.0695C38.3235 18.375 40.1528 20.2043 40.1528 22.4583C40.1528 23.961 41.3724 25.1806 42.875 25.1806H49C47.4974 25.1806 46.2778 23.961 46.2778 22.4583Z" fill="#304C94"/>
<path d="M55.125 27.2222H42.875C40.2481 27.2222 38.1111 25.0853 38.1111 22.4583C38.1111 21.3341 37.1965 20.4167 36.0695 20.4167V16.3333C39.4477 16.3333 42.1945 19.0828 42.1945 22.4583C42.1945 22.834 42.4993 23.1389 42.875 23.1389H55.125C55.5007 23.1389 55.8056 22.834 55.8056 22.4583C55.8056 19.0828 58.5523 16.3333 61.9306 16.3333V20.4167C60.8036 20.4167 59.8889 21.3341 59.8889 22.4583C59.8889 25.0853 57.752 27.2222 55.125 27.2222Z" fill="black"/>
<path d="M63.2917 81.6667H34.7083C30.5787 81.6667 27.2222 78.3102 27.2222 74.1805V23.8194C27.2222 19.6898 30.5787 16.3333 34.7083 16.3333H63.2917C67.4213 16.3333 70.7778 19.6898 70.7778 23.8194V74.1805C70.7778 78.3102 67.4213 81.6667 63.2917 81.6667ZM34.7083 20.4167C32.8327 20.4167 31.3056 21.9438 31.3056 23.8194V74.1805C31.3056 76.0562 32.8327 77.5833 34.7083 77.5833H63.2917C65.1673 77.5833 66.6945 76.0562 66.6945 74.1805V23.8194C66.6945 21.9438 65.1673 20.4167 63.2917 20.4167H34.7083Z" fill="black"/>
<path d="M39.4722 47.6389H50.3611V51.7222H39.4722V47.6389Z" fill="black"/>
<path d="M39.4722 55.8056H50.3611V59.8889H39.4722V55.8056Z" fill="black"/>
<path d="M35.3889 63.9722H62.6111V68.0555H35.3889V63.9722Z" fill="black"/>
<path d="M58.5278 66.0139H54.4444V42.7089L43.5556 45.1834V66.0112H39.4722V43.5556C39.4722 42.6001 40.131 41.7779 41.062 41.5656L56.0342 38.1628C56.6386 38.0213 57.2756 38.171 57.7601 38.5603C58.2447 38.9496 58.5278 39.5294 58.5278 40.1528V66.0139Z" fill="black"/>
</svg>
