<svg width="155" height="155" viewBox="0 0 155 155" fill="none" xmlns="http://www.w3.org/2000/svg">
<path d="M150.281 87.6396C133.998 62.7061 135.728 37.1484 127.879 25.1316C120.03 13.1148 96.6383 -7.60358 41.3679 28.4985C-13.9025 64.6006 0.15511 103.846 8.79205 117.059C49.2126 178.939 179.124 131.797 150.281 87.6396Z" fill="#EFEFEF"/>
<path d="M32.8471 122.153C27.801 117.107 27.801 108.931 32.8471 103.884L63.2917 73.4399C64.9751 71.7564 67.7006 71.7564 69.3797 73.4399L81.5558 85.616C83.2393 87.2994 83.2393 90.0249 81.5558 91.704L51.1112 122.149C46.0694 127.199 37.8889 127.199 32.8471 122.153Z" fill="#F3F3F1"/>
<path d="M42.5346 123.229C37.4885 118.183 37.4885 110.007 42.5346 104.961L71.7176 75.7778L69.3797 73.4399C67.6963 71.7564 64.9708 71.7564 63.2917 73.4399L32.8471 103.884C27.801 108.931 27.801 117.107 32.8471 122.153C36.2786 125.584 41.1525 126.626 45.5097 125.386C44.4506 124.809 43.4301 124.129 42.5346 123.229Z" fill="#D5DBE1"/>
<path d="M102.864 56.3425L98.7221 52.1919C97.2711 50.7367 97.0473 48.459 98.1839 46.7454L102.313 40.5325L116.03 29.5318C116.887 28.8429 118.123 28.9118 118.898 29.6911L125.305 36.115C126.08 36.8943 126.149 38.13 125.464 38.9868L114.489 52.7344L108.293 56.8764C106.588 58.0217 104.315 57.7978 102.864 56.3425Z" fill="#4467C0"/>
<path d="M108.41 53.2683C106.959 51.813 106.735 49.5354 107.871 47.8218L112 41.6089L122.437 33.2389L118.898 29.6911C118.123 28.9118 116.887 28.8429 116.03 29.5318L102.313 40.5325L98.1839 46.7454C97.0473 48.459 97.2711 50.7367 98.7221 52.1919L102.864 56.3425C104.315 57.7978 106.588 58.0217 108.298 56.8807L110.528 55.391L108.41 53.2683Z" fill="#304C94"/>
<path d="M21.4978 24.1769L24.5423 21.1324L30.6313 27.2214L27.5868 30.2659L21.4978 24.1769Z" fill="#A4AFC1"/>
<path d="M39.0015 41.6876L42.046 38.6431L48.1349 44.732L45.0904 47.7765L39.0015 41.6876Z" fill="#A4AFC1"/>
<path d="M20.7368 44.7191L26.8258 38.6301L29.8703 41.6746L23.7813 47.7636L20.7368 44.7191Z" fill="#A4AFC1"/>
<path d="M38.2432 27.2156L44.3321 21.1266L47.3766 24.1711L41.2877 30.2601L38.2432 27.2156Z" fill="#A4AFC1"/>
<path d="M133.231 56.8075C129.67 56.8075 126.773 53.9098 126.773 50.3491C126.773 46.7884 129.67 43.8908 133.231 43.8908C136.792 43.8908 139.689 46.7884 139.689 50.3491C139.689 53.9098 136.792 56.8075 133.231 56.8075ZM133.231 48.1964C132.043 48.1964 131.078 49.1651 131.078 50.3491C131.078 51.5332 132.043 52.5019 133.231 52.5019C134.419 52.5019 135.384 51.5332 135.384 50.3491C135.384 49.1651 134.419 48.1964 133.231 48.1964Z" fill="#304C94"/>
<path d="M41.9793 129.167C37.6695 129.167 33.6136 127.487 30.5653 124.435C27.5127 121.387 25.8335 117.335 25.8335 113.021C25.8335 108.707 27.5127 104.655 30.5653 101.607L61.0099 71.1622C63.8602 68.3162 68.8202 68.3248 71.6661 71.1622L83.8423 83.3383C85.2674 84.7635 86.051 86.6579 86.051 88.6729C86.051 90.6836 85.2631 92.5737 83.8423 93.9946L53.3977 124.435C50.345 127.483 46.2892 129.167 41.9793 129.167ZM66.3359 75.4118C66.1679 75.4118 65.8493 75.4548 65.5738 75.7261L35.1292 106.171C33.2993 108.001 32.2918 110.433 32.2918 113.021C32.2918 115.608 33.2993 118.041 35.1292 119.871C38.7889 123.531 45.1697 123.531 48.8295 119.871L79.2741 89.4264C79.5496 89.1551 79.5884 88.8322 79.5884 88.6686C79.5884 88.5007 79.5496 88.1778 79.2741 87.9022L67.0936 75.7261C66.8224 75.4505 66.4995 75.4118 66.3359 75.4118Z" fill="black"/>
<path d="M105.917 60.8332C103.966 60.8332 102.033 60.0798 100.578 58.6202L96.4402 54.4739C93.9128 51.938 93.5124 47.9338 95.4973 44.9543L99.6263 38.75C99.8114 38.4745 100.035 38.2248 100.294 38.0181L114.011 27.0131C116.155 25.2909 119.238 25.4631 121.189 27.4135L127.595 33.8374C129.533 35.7792 129.701 38.862 127.991 41.0018L117.016 54.7495C116.81 55.0121 116.564 55.236 116.289 55.4212L110.093 59.5631C108.819 60.4156 107.363 60.8332 105.917 60.8332ZM104.724 42.7456L100.871 48.5366C100.582 48.9714 100.638 49.5441 101.004 49.91L105.146 54.0606V54.0649C105.503 54.4223 106.076 54.4869 106.494 54.1984L112.276 50.3363L122.342 37.7253L117.292 32.6577L104.724 42.7456Z" fill="black"/>
<path d="M73.2231 77.3744L98.5015 52.0245L103.074 56.584L77.7956 81.934L73.2231 77.3744Z" fill="black"/>
</svg>
