<svg width="155" height="155" viewBox="0 0 155 155" fill="none" xmlns="http://www.w3.org/2000/svg">
<path d="M118.045 16.8519C88.2723 17.4074 67.5324 2.36375 53.1863 2.635C38.8402 2.90625 8.85629 11.7154 10.092 77.7239C11.3277 143.732 52.0453 152.658 67.8295 152.365C141.726 150.983 170.78 15.866 118.045 16.8519Z" fill="#EFEFEF"/>
<path d="M125.937 55.9722C125.937 70.8264 113.882 82.8819 99.0278 82.8819C95.1528 82.8819 91.45 82.0639 88.1347 80.5569L45.5958 123.096C41.8069 126.885 35.6931 126.885 31.9042 123.096C28.1153 119.307 28.1153 113.193 31.9042 109.404L74.4431 66.8653C72.9361 63.55 72.1181 59.8472 72.1181 55.9722C72.1181 41.1181 84.1736 29.0625 99.0278 29.0625C102.903 29.0625 106.606 29.8806 109.921 31.3875L97.1764 44.1319L99.0278 55.9722L110.868 57.8236L123.612 45.0792C125.119 48.3944 125.937 52.0972 125.937 55.9722Z" fill="#F9F9F9"/>
<path d="M41.5917 124.172C37.8028 120.383 37.8028 114.269 41.5917 110.481L84.1306 67.9417C82.6236 64.6264 81.8056 60.9236 81.8056 57.0486C81.8056 42.8403 92.845 31.2196 106.804 30.2336C104.341 29.4844 101.732 29.0625 99.0278 29.0625C84.1736 29.0625 72.1181 41.1181 72.1181 55.9722C72.1181 59.8472 72.9361 63.55 74.4431 66.8653L31.9042 109.404C28.1153 113.193 28.1153 119.307 31.9042 123.096C34.8319 126.024 39.1332 126.661 42.6896 125.068C42.315 124.788 41.9318 124.512 41.5917 124.172Z" fill="#D5DBE1"/>
<path d="M120.556 58.9L125.813 53.6429C125.554 50.6161 124.814 47.7228 123.613 45.0792L111.247 57.4447L120.556 58.9Z" fill="#D5DBE1"/>
<path d="M97.822 81.6333L96.6982 82.7571C97.4689 82.8217 98.2439 82.8819 99.0318 82.8819C99.6777 82.8819 100.311 82.8303 100.944 82.7872C99.8714 82.46 98.8252 82.0897 97.822 81.6333Z" fill="#D5DBE1"/>
<path d="M112.614 19.8906L115.659 16.8461L121.748 22.9351L118.703 25.9796L112.614 19.8906Z" fill="#304C94"/>
<path d="M130.118 37.4013L133.162 34.3568L139.251 40.4458L136.207 43.4902L130.118 37.4013Z" fill="#304C94"/>
<path d="M129.348 22.9194L135.437 16.8305L138.482 19.875L132.393 25.9639L129.348 22.9194Z" fill="#304C94"/>
<path d="M65.6598 139.931C62.0991 139.931 59.2014 137.033 59.2014 133.472C59.2014 129.911 62.0991 127.014 65.6598 127.014C69.2205 127.014 72.1181 129.911 72.1181 133.472C72.1181 137.033 69.2205 139.931 65.6598 139.931ZM65.6598 131.319C64.4714 131.319 63.507 132.288 63.507 133.472C63.507 134.656 64.4714 135.625 65.6598 135.625C66.8481 135.625 67.8125 134.656 67.8125 133.472C67.8125 132.288 66.8481 131.319 65.6598 131.319Z" fill="#304C94"/>
<path d="M38.7498 129.167C35.3054 129.167 32.0633 127.823 29.6221 125.378C24.5889 120.345 24.5889 112.155 29.6221 107.122L70.6454 66.0989C69.4786 62.887 68.8887 59.4899 68.8887 55.9722C68.8887 39.3571 82.4082 25.8333 99.0276 25.8333C103.32 25.8333 107.436 26.7117 111.255 28.4468C112.22 28.886 112.909 29.7686 113.098 30.8106C113.288 31.8525 112.952 32.9203 112.203 33.6695L100.616 45.2514L101.852 53.1435L109.744 54.3749L121.326 42.7929C122.075 42.0481 123.147 41.7208 124.185 41.8974C125.227 42.0868 126.11 42.7757 126.549 43.7402C128.288 47.5592 129.166 51.6753 129.166 55.9722C129.166 72.5874 115.647 86.1111 99.0276 86.1111C95.5143 86.1111 92.1172 85.5213 88.9009 84.3545L47.8776 125.378C45.4364 127.823 42.1943 129.167 38.7498 129.167ZM99.0276 32.2917C85.9689 32.2917 75.3471 42.9135 75.3471 55.9722C75.3471 59.3392 76.0316 62.5554 77.3836 65.5306C77.939 66.7577 77.6807 68.2 76.7291 69.1515L34.1903 111.69C31.6758 114.205 31.6758 118.299 34.1903 120.814C36.6358 123.259 40.8682 123.259 43.3137 120.814L85.8526 78.275C86.8041 77.3192 88.2508 77.0565 89.4693 77.6206C92.4444 78.9682 95.6607 79.6528 99.0276 79.6528C112.086 79.6528 122.708 69.031 122.708 55.9722C122.708 54.2888 122.536 52.6526 122.2 51.0553L113.15 60.1056C112.418 60.8332 111.376 61.1647 110.368 61.014L98.5282 59.1627C97.1418 58.9431 96.0525 57.8581 95.8372 56.4717L93.9858 44.6314C93.8265 43.611 94.1666 42.5733 94.8943 41.85L103.945 32.7997C102.347 32.4639 100.707 32.2917 99.0276 32.2917Z" fill="black"/>
</svg>
