<svg width="155" height="155" viewBox="0 0 155 155" fill="none" xmlns="http://www.w3.org/2000/svg">
<path d="M150.281 87.6396C133.998 62.7061 135.728 37.1483 127.879 25.1315C120.03 13.1147 96.6383 -7.60361 41.3679 28.4985C-13.9025 64.6006 0.15511 103.846 8.79206 117.059C49.2126 178.939 179.124 131.797 150.281 87.6396Z" fill="#EFEFEF"/>
<path d="M123.832 71.1838H117.008C116.586 68.4454 115.871 65.7932 114.902 63.2228L120.801 59.8128C121.813 59.2229 122.149 57.9614 121.559 56.9496L117.348 49.6215C116.758 48.6097 115.497 48.2739 114.485 48.8638L108.543 52.2694C106.817 50.121 104.879 48.1835 102.731 46.4569L106.141 40.5196C106.73 39.5078 106.395 38.2463 105.383 37.6564L98.0547 33.4456C97.0429 32.8557 95.7814 33.1915 95.1915 34.2033L91.7815 40.1019C89.2111 39.1332 86.5589 38.4185 83.8206 37.9965V31.1679C83.8206 29.9882 82.8949 29.0625 81.7151 29.0625H73.2892C72.1094 29.0625 71.1838 29.9882 71.1838 31.1679V37.9922C68.4454 38.4142 65.7932 39.1289 63.2228 40.0976L59.8128 34.199C59.2229 33.1872 57.9614 32.8514 56.9496 33.4413L49.6215 37.6521C48.6097 38.2419 48.2739 39.5035 48.8637 40.5153L52.2737 46.4526C50.1253 48.1792 48.1878 50.1167 46.4613 52.2651L40.5239 48.8551C39.5121 48.2653 38.2506 48.6011 37.6607 49.6129L33.4499 56.941C32.86 57.9528 33.1958 59.2143 34.2076 59.8042L40.1062 63.2142C39.1375 65.7846 38.4228 68.4368 38.0008 71.1751H31.1679C29.9882 71.1751 29.0625 72.1008 29.0625 73.2806V81.7065C29.0625 82.8862 29.9882 83.8119 31.1679 83.8119H37.9922C38.4142 86.5503 39.1289 89.2025 40.0976 91.7729L34.199 95.1829C33.1872 95.7728 32.8514 97.0343 33.4413 98.0461L37.6521 105.374C38.2419 106.386 39.5035 106.722 40.5153 106.132L46.4526 102.722C48.1792 104.87 50.1167 106.808 52.2651 108.534L48.8551 114.472C48.2653 115.484 48.6011 116.745 49.6129 117.335L56.941 121.546C57.9528 122.136 59.2143 121.8 59.8042 120.788L63.2142 114.889C65.7846 115.858 68.4368 116.573 71.1751 116.995V123.819C71.1751 124.999 72.1008 125.925 73.2806 125.925H81.7065C82.8862 125.925 83.8119 124.999 83.8119 123.819V116.995C86.5503 116.573 89.2025 115.858 91.7729 114.889L95.1829 120.788C95.7728 121.8 97.0343 122.136 98.0461 121.546L105.374 117.335C106.386 116.745 106.722 115.484 106.132 114.472L102.731 108.543C104.879 106.817 106.817 104.879 108.543 102.731L114.48 106.141C115.492 106.73 116.754 106.395 117.344 105.383L121.554 98.0547C122.144 97.0429 121.808 95.7814 120.797 95.1915L114.898 91.7815C115.867 89.2111 116.582 86.5589 117.003 83.8206H123.828C125.007 83.8206 125.933 82.8949 125.933 81.7151V73.2892C125.938 72.1094 125.012 71.1838 123.832 71.1838Z" fill="#F3F3F1"/>
<path d="M72.9103 40.0976C75.4807 39.1289 78.1329 38.4142 80.8712 37.9922V31.1679C80.8712 30.2121 81.4869 29.4543 82.3437 29.1874C82.1414 29.1228 81.939 29.0625 81.7108 29.0625H73.2849C72.1051 29.0625 71.1794 29.9882 71.1794 31.1679V37.1139L72.9103 40.0976Z" fill="#D5DBE1"/>
<path d="M52.2694 46.4569C51.3911 47.163 50.573 47.9294 49.7636 48.7044C49.9143 48.7518 50.065 48.7733 50.207 48.8551L56.1444 52.2651C57.8709 50.1167 59.8084 48.1792 61.9569 46.4526L58.5469 40.5153C57.957 39.5035 58.2929 38.2419 59.3047 37.6521L61.1819 36.5714L59.8084 34.199C59.2186 33.1872 57.957 32.8514 56.9452 33.4412L49.6172 37.6521C48.6054 38.2419 48.2695 39.5035 48.8594 40.5153L52.2694 46.4569Z" fill="#D5DBE1"/>
<path d="M93.5037 37.9922C96.242 38.4142 98.8942 39.1289 101.465 40.0976L103.501 36.5757L98.0503 33.4456C97.0385 32.8557 95.777 33.1915 95.1871 34.2033L93.5037 37.1139V37.9922Z" fill="#D5DBE1"/>
<path d="M114.924 48.7044C116.091 49.8282 117.21 50.9993 118.23 52.2694L118.713 51.9939L117.348 49.6172C116.84 48.7475 115.837 48.416 114.924 48.7044Z" fill="#D5DBE1"/>
<path d="M59.3047 117.344C58.2929 116.754 57.957 115.492 58.5469 114.48L61.9569 108.543C59.8084 106.817 57.8709 104.879 56.1444 102.731L50.207 106.141C50.065 106.222 49.9143 106.244 49.7636 106.291C50.573 107.066 51.3911 107.833 52.2694 108.539L48.8594 114.476C48.2695 115.488 48.6054 116.749 49.6172 117.339L56.9452 121.55C57.957 122.14 59.2186 121.804 59.8084 120.792L61.1819 118.42L59.3047 117.344Z" fill="#D5DBE1"/>
<path d="M118.23 102.731C117.21 104.001 116.091 105.172 114.924 106.296C115.837 106.584 116.84 106.252 117.344 105.387L118.708 103.01L118.23 102.731Z" fill="#D5DBE1"/>
<path d="M101.465 114.902C98.8942 115.871 96.242 116.586 93.5037 117.008V117.886L95.1871 120.797C95.777 121.808 97.0385 122.144 98.0503 121.554L103.501 118.424L101.465 114.902Z" fill="#D5DBE1"/>
<path d="M80.8713 123.832V117.008C78.133 116.586 75.4808 115.871 72.9104 114.902L71.1838 117.886V123.832C71.1838 125.012 72.1095 125.938 73.2892 125.938H81.7152C81.9391 125.938 82.1458 125.877 82.3481 125.813C81.487 125.546 80.8713 124.784 80.8713 123.832Z" fill="#D5DBE1"/>
<path d="M43.1287 98.0547C42.5389 97.0429 42.8747 95.7814 43.8865 95.1915L49.7851 91.7815C48.8164 89.2111 48.1017 86.5589 47.6797 83.8206H40.8554C39.6757 83.8163 38.75 82.8906 38.75 81.7108V73.2849C38.75 72.1051 39.6757 71.1794 40.8554 71.1794H47.6797C48.1017 68.4411 48.8164 65.7889 49.7851 63.2185L43.8865 59.8085C42.8747 59.2186 42.5389 57.9571 43.1287 56.9453L45.9747 51.9939L40.5153 48.8594C39.5035 48.2696 38.2419 48.6054 37.6521 49.6172L33.4413 56.9453C32.8514 57.9571 33.1872 59.2186 34.199 59.8085L40.0976 63.2185C39.1289 65.7889 38.4142 68.4411 37.9922 71.1794H31.1679C29.9882 71.1794 29.0625 72.1051 29.0625 73.2849V81.7108C29.0625 82.8906 29.9882 83.8162 31.1679 83.8162H37.9922C38.4142 86.5546 39.1289 89.2068 40.0976 91.7772L34.199 95.1872C33.1872 95.7771 32.8514 97.0386 33.4413 98.0504L37.6521 105.378C38.2419 106.39 39.5035 106.726 40.5153 106.136L45.9747 103.002L43.1287 98.0547Z" fill="#D5DBE1"/>
<path d="M77.5001 104.41C92.3619 104.41 104.41 92.3618 104.41 77.5C104.41 62.6382 92.3619 50.5903 77.5001 50.5903C62.6382 50.5903 50.5903 62.6382 50.5903 77.5C50.5903 92.3618 62.6382 104.41 77.5001 104.41Z" fill="#4467C0"/>
<path d="M60.2778 77.5C60.2778 64.2949 69.7974 53.3329 82.3438 51.0467C80.7723 50.7625 79.1577 50.5903 77.5001 50.5903C62.6373 50.5903 50.5903 62.6372 50.5903 77.5C50.5903 92.3628 62.6373 104.41 77.5001 104.41C79.1577 104.41 80.7723 104.237 82.3438 103.953C69.7974 101.667 60.2778 90.7051 60.2778 77.5Z" fill="#304C94"/>
<path d="M77.5001 85.0347C81.6614 85.0347 85.0348 81.6613 85.0348 77.5C85.0348 73.3387 81.6614 69.9653 77.5001 69.9653C73.3387 69.9653 69.9653 73.3387 69.9653 77.5C69.9653 81.6613 73.3387 85.0347 77.5001 85.0347Z" fill="#F3F3F1"/>
<path d="M118.941 125.938H123.246V134.549H118.941V125.938Z" fill="#A4AFC1"/>
<path d="M128.628 115.174H137.24V119.479H128.628V115.174Z" fill="#A4AFC1"/>
<path d="M125.937 27.9861C122.377 27.9861 119.479 25.0885 119.479 21.5278C119.479 17.9671 122.377 15.0695 125.937 15.0695C129.498 15.0695 132.396 17.9671 132.396 21.5278C132.396 25.0885 129.498 27.9861 125.937 27.9861ZM125.937 19.375C124.749 19.375 123.785 20.3394 123.785 21.5278C123.785 22.7161 124.749 23.6806 125.937 23.6806C127.126 23.6806 128.09 22.7161 128.09 21.5278C128.09 20.3394 127.126 19.375 125.937 19.375Z" fill="#A4AFC1"/>
<path d="M77.5 88.2639C71.5669 88.2639 66.7361 83.4331 66.7361 77.5C66.7361 71.5669 71.5669 66.7361 77.5 66.7361C83.433 66.7361 88.2639 71.5669 88.2639 77.5C88.2639 83.4331 83.433 88.2639 77.5 88.2639ZM77.5 73.1944C75.1276 73.1944 73.1944 75.1276 73.1944 77.5C73.1944 79.8724 75.1276 81.8056 77.5 81.8056C79.8723 81.8056 81.8055 79.8724 81.8055 77.5C81.8055 75.1276 79.8723 73.1944 77.5 73.1944Z" fill="black"/>
<path d="M77.5 107.639C60.8805 107.639 47.3611 94.1195 47.3611 77.5C47.3611 60.8806 60.8805 47.3611 77.5 47.3611C94.1194 47.3611 107.639 60.8806 107.639 77.5C107.639 94.1195 94.1194 107.639 77.5 107.639ZM77.5 53.8195C64.4412 53.8195 53.8194 64.4413 53.8194 77.5C53.8194 90.5588 64.4412 101.181 77.5 101.181C90.5587 101.181 101.181 90.5588 101.181 77.5C101.181 64.4413 90.5587 53.8195 77.5 53.8195Z" fill="black"/>
<path d="M81.7107 129.167H73.2891C70.3484 129.167 67.9545 126.773 67.9545 123.832V119.686C66.8609 119.44 65.7716 119.152 64.6909 118.816L62.607 122.416C61.8837 123.66 60.7298 124.542 59.3606 124.9C57.9914 125.266 56.5577 125.068 55.322 124.344L48.0155 120.147C45.4623 118.653 44.6012 115.389 46.0737 112.857L48.1446 109.249C47.318 108.487 46.5214 107.686 45.7551 106.86L42.1298 108.943C39.6153 110.407 36.3474 109.546 34.8706 107.015L30.6469 99.665C29.9364 98.4508 29.7427 97.0171 30.1044 95.6479C30.4617 94.2744 31.3444 93.1249 32.5801 92.4058L36.1881 90.3176C35.8523 89.2369 35.5638 88.1476 35.3184 87.054H31.1678C28.2271 87.0454 25.8333 84.6515 25.8333 81.7108V73.2892C25.8333 70.3485 28.2271 67.9546 31.1678 67.9546H35.3141C35.5595 66.861 35.848 65.7717 36.1838 64.691L32.5844 62.6028C31.3401 61.8794 30.4574 60.7256 30.1001 59.3564C29.7384 57.9872 29.9364 56.5535 30.6555 55.3178L34.8534 48.0112C36.3474 45.4537 39.611 44.5969 42.147 46.0694L45.7551 48.1404C46.5171 47.3137 47.3137 46.5172 48.1446 45.7508L46.0607 42.1256C44.5969 39.6111 45.4537 36.3475 47.9896 34.8664L55.3392 30.6426C56.5534 29.9322 57.9828 29.7342 59.3563 30.1001C60.7298 30.4575 61.8794 31.3401 62.5984 32.5758L64.6866 36.1839C65.7673 35.8481 66.8566 35.5596 67.9502 35.3142V31.1679C67.9545 28.2272 70.3484 25.8333 73.2891 25.8333H81.7107C84.6514 25.8333 87.0453 28.2272 87.0453 31.1679V35.3142C88.1389 35.5596 89.2282 35.8481 90.3089 36.1839L92.3928 32.5844C93.1162 31.3401 94.27 30.4575 95.6392 30.1001C97.0084 29.7342 98.4421 29.9322 99.6778 30.6556L106.984 34.8535C109.546 36.3475 110.407 39.6111 108.93 42.1471L106.859 45.7551C107.686 46.5172 108.483 47.3137 109.249 48.1447L112.874 46.0608C115.389 44.5926 118.648 45.4581 120.134 47.9897L124.357 55.3393C125.068 56.5535 125.261 57.9872 124.9 59.3564C124.542 60.7299 123.66 61.8794 122.424 62.5985L118.816 64.6867C119.152 65.7674 119.44 66.8567 119.686 67.9503H123.832C126.773 67.9503 129.167 70.3442 129.167 73.2849V81.7065C129.167 84.6472 126.773 87.0411 123.832 87.0411H119.686C119.44 88.1347 119.152 89.224 118.816 90.3047L122.415 92.3886C123.66 93.1119 124.542 94.2658 124.9 95.635C125.261 97.0042 125.063 98.4379 124.344 99.6736L120.146 106.98C118.652 109.533 115.389 110.39 112.857 108.922L109.249 106.851C108.487 107.678 107.69 108.474 106.859 109.241L108.943 112.866C110.407 115.38 109.546 118.648 107.014 120.129L99.6649 124.353C98.4507 125.063 97.0256 125.266 95.6478 124.896C94.2744 124.538 93.1248 123.656 92.4057 122.42L90.3175 118.812C89.2369 119.148 88.1475 119.436 87.0539 119.682V123.828C87.0453 126.773 84.6514 129.167 81.7107 129.167ZM74.4128 122.708H80.5913V117.008C80.5913 115.415 81.7538 114.058 83.3296 113.817C85.7752 113.438 88.238 112.788 90.6448 111.88C92.1173 111.329 93.7878 111.914 94.58 113.283L97.426 118.196L102.791 115.113L99.9362 110.149C99.1439 108.771 99.4755 107.019 100.711 106.024C102.67 104.453 104.461 102.662 106.033 100.703C107.027 99.4669 108.78 99.1311 110.158 99.9276L115.122 102.782L118.205 97.4175L113.292 94.5715C111.923 93.7793 111.329 92.1174 111.888 90.6362C112.793 88.2337 113.447 85.771 113.826 83.3211C114.071 81.7453 115.423 80.5828 117.016 80.5828H122.708V74.4043H117.008C115.415 74.4043 114.058 73.2418 113.817 71.666C113.438 69.2204 112.788 66.7576 111.88 64.3508C111.324 62.874 111.914 61.2078 113.283 60.4156L118.196 57.5696L115.113 52.2049L110.149 55.0594C108.775 55.856 107.023 55.5201 106.024 54.2844C104.453 52.3254 102.662 50.5343 100.703 48.9628C99.4625 47.9682 99.1353 46.2158 99.9275 44.8381L102.782 39.8737L97.4174 36.791L94.5714 41.7036C93.7792 43.0685 92.113 43.6626 90.6362 43.1072C88.2294 42.2031 85.7709 41.5486 83.321 41.1697C81.7452 40.9243 80.5827 39.5724 80.5827 37.9793V32.2917H74.4042V37.9922C74.4042 39.5853 73.2417 40.9415 71.6659 41.1826C69.2203 41.5615 66.7576 42.2117 64.3507 43.1201C62.8869 43.6799 61.212 43.0857 60.4155 41.7165L57.5695 36.8039L52.2048 39.8867L55.0594 44.851C55.8516 46.2287 55.5201 47.9811 54.2844 48.9757C52.3253 50.5472 50.5342 52.3383 48.9627 54.2974C47.9681 55.5331 46.2157 55.8646 44.838 55.0724L39.8737 52.2178L36.7909 57.5825L41.7035 60.4285C43.0727 61.2207 43.6669 62.8826 43.1071 64.3637C42.203 66.7706 41.5485 69.229 41.1696 71.6789C40.9242 73.2547 39.5723 74.4172 37.9792 74.4172H32.2916V80.5957H37.9921C39.5852 80.5957 40.9414 81.7582 41.1826 83.334C41.5614 85.7839 42.2116 88.2467 43.1201 90.6492C43.6755 92.126 43.0856 93.7922 41.7164 94.5844L36.8038 97.4304L39.8866 102.795L44.8509 99.9405C46.233 99.1483 47.9853 99.4842 48.9756 100.716C50.5471 102.675 52.3382 104.466 54.2973 106.037C55.5373 107.032 55.8645 108.784 55.0723 110.162L52.2177 115.126L57.5824 118.209L60.4284 113.296C61.2206 111.927 62.8869 111.337 64.3637 111.893C66.7705 112.797 69.2289 113.451 71.6788 113.83C73.2546 114.076 74.4171 115.428 74.4171 117.021V122.708H74.4128ZM96.4357 118.76C96.4314 118.76 96.4271 118.764 96.4228 118.769L96.4357 118.76ZM58.5426 118.752L58.5512 118.756C58.5512 118.756 58.5469 118.752 58.5426 118.752ZM103.346 116.095C103.346 116.095 103.35 116.099 103.35 116.104L103.346 116.095ZM51.6623 116.078L51.658 116.086C51.6623 116.086 51.6623 116.082 51.6623 116.078ZM38.9049 103.346C38.9006 103.346 38.8963 103.351 38.892 103.351L38.9049 103.346ZM116.078 103.333L116.091 103.338C116.086 103.338 116.082 103.338 116.078 103.333ZM118.756 96.4444C118.756 96.4487 118.751 96.4531 118.751 96.4531L118.756 96.4444ZM36.2312 96.4272L36.2398 96.4401C36.2398 96.4315 36.2355 96.4272 36.2312 96.4272ZM118.76 58.5642C118.76 58.5685 118.764 58.5728 118.769 58.5771L118.76 58.5642ZM36.2484 58.5426L36.2441 58.5556C36.2441 58.5513 36.2484 58.5469 36.2484 58.5426ZM38.9092 51.6581C38.9135 51.6581 38.9178 51.6624 38.9221 51.6624L38.9092 51.6581ZM116.108 51.6494L116.095 51.6537C116.099 51.6537 116.104 51.6494 116.108 51.6494ZM103.342 38.9093C103.342 38.9136 103.338 38.9179 103.338 38.9222L103.342 38.9093ZM51.6494 38.8921L51.6537 38.905C51.6537 38.9007 51.6494 38.8964 51.6494 38.8921ZM96.4444 36.2442C96.4487 36.2442 96.4487 36.2485 96.453 36.2485L96.4444 36.2442ZM58.5727 36.2312L58.5598 36.2399C58.5684 36.2399 58.5727 36.2356 58.5727 36.2312Z" fill="black"/>
<path d="M85.0347 74.2708H104.41V80.7292H85.0347V74.2708Z" fill="black"/>
<path d="M61.2737 55.7904L66.8703 52.5591L76.5643 69.349L70.9676 72.5804L61.2737 55.7904Z" fill="black"/>
<path d="M61.2244 99.2073L70.9183 82.4174L76.515 85.6487L66.821 102.439L61.2244 99.2073Z" fill="black"/>
</svg>
