<svg width="35" height="35" viewBox="0 0 35 35" fill="none" xmlns="http://www.w3.org/2000/svg">
<path d="M8.14444 4.05125C14.8693 4.05125 19.4874 0.56778 22.7278 0.56778C25.9682 0.56778 32.7737 2.43056 32.7737 17.3376C32.7737 32.2447 23.6183 34.4322 20.0542 34.4322C3.36402 34.4332 -3.76528 4.05125 8.14444 4.05125Z" fill="#EFEFEF"/>
<path d="M25.764 8.75001C24.96 8.75001 24.3057 8.0957 24.3057 7.29168C24.3057 6.48765 24.96 5.83334 25.764 5.83334C26.568 5.83334 27.2223 6.48765 27.2223 7.29168C27.2223 8.0957 26.568 8.75001 25.764 8.75001ZM25.764 6.80557C25.4957 6.80557 25.2779 7.02431 25.2779 7.29168C25.2779 7.55904 25.4957 7.77779 25.764 7.77779C26.0323 7.77779 26.2501 7.55904 26.2501 7.29168C26.2501 7.02431 26.0323 6.80557 25.764 6.80557Z" fill="#A4AFC1"/>
<path d="M8.50684 28.4375V10.4514L18.7152 6.5625V28.4375H8.50684Z" fill="#F3F3F1"/>
<path d="M27.4653 28.4375V15.3125L18.7153 11.4819V28.4375H27.4653Z" fill="#2FDF84"/>
<path d="M18.7152 7.39569V6.5625L8.50684 10.4514V28.4375H10.6943V10.4514L18.7152 7.39569Z" fill="#D5DBE1"/>
<path d="M18.7153 11.4819V28.4375H20.9028V12.4396L18.7153 11.4819Z" fill="#00B871"/>
<path d="M19.4445 28.4375H17.9862V7.62027L9.23617 10.954V28.4375H7.77783V10.4514C7.77783 10.148 7.9645 9.87777 8.24742 9.76985L18.4557 5.88096C18.6794 5.79735 18.9321 5.82652 19.1295 5.96263C19.3269 6.09874 19.4445 6.32235 19.4445 6.56249V28.4375Z" fill="black"/>
<path d="M28.1947 29.1667H26.7363V15.786L21.1558 13.3107L21.7469 11.9778L27.761 14.6456C28.0245 14.7632 28.1947 15.0238 28.1947 15.3125V29.1667Z" fill="black"/>
<path d="M10.6943 11.6667H12.1527V14.5833H10.6943V11.6667Z" fill="black"/>
<path d="M15.0693 11.6667H16.5277V14.5833H15.0693V11.6667Z" fill="black"/>
<path d="M10.6943 17.5H12.1527V20.4167H10.6943V17.5Z" fill="black"/>
<path d="M15.0693 17.5H16.5277V20.4167H15.0693V17.5Z" fill="black"/>
<path d="M10.6943 23.3333H12.1527V26.25H10.6943V23.3333Z" fill="black"/>
<path d="M15.0693 23.3333H16.5277V26.25H15.0693V23.3333Z" fill="black"/>
<path d="M20.9028 17.5H22.3612V20.4167H20.9028V17.5Z" fill="black"/>
<path d="M23.8193 17.5H25.2777V20.4167H23.8193V17.5Z" fill="black"/>
<path d="M20.9028 23.3333H22.3612V26.25H20.9028V23.3333Z" fill="black"/>
<path d="M23.8193 23.3333H25.2777V26.25H23.8193V23.3333Z" fill="black"/>
<path d="M1.94434 27.7083H33.0555V29.1667H1.94434V27.7083Z" fill="black"/>
</svg>
