<svg width="35" height="35" viewBox="0 0 35 35" fill="none" xmlns="http://www.w3.org/2000/svg">
<path d="M26.8559 30.9487C20.131 30.9487 15.513 34.4322 12.2725 34.4322C9.03212 34.4322 2.22656 32.5694 2.22656 17.6624C2.22656 2.75527 11.382 0.566803 14.9461 0.566803C31.6363 0.566803 38.7656 30.9487 26.8559 30.9487Z" fill="#EFEFEF"/>
<path d="M6.77783 3.22858L8.15276 1.85365L8.84023 2.54111L7.4653 3.91604L6.77783 3.22858Z" fill="#A4AFC1"/>
<path d="M2.82471 7.18098L4.19964 5.80606L4.8871 6.49352L3.51217 7.86845L2.82471 7.18098Z" fill="#A4AFC1"/>
<path d="M2.99707 2.54075L3.68454 1.85328L5.05946 3.22821L4.372 3.91568L2.99707 2.54075Z" fill="#A4AFC1"/>
<path d="M28.4375 16.2419L18.4042 21.4083C17.8403 21.7 17.1597 21.7 16.5958 21.4083L6.5625 16.0514V13.9203C6.5625 13.5781 6.74236 13.2601 7.03694 13.0851L10.7751 10.8568H24.0625L27.9494 13.0881C28.2518 13.2611 28.4375 13.5829 28.4375 13.931V16.2419Z" fill="#F3F3F1"/>
<path d="M25.2776 23.0903H9.479V8.50695C9.479 7.43264 10.3491 6.5625 11.4234 6.5625H23.3332C24.4075 6.5625 25.2776 7.43264 25.2776 8.50695V23.0903Z" fill="#2FDF84"/>
<path d="M28.4375 15.0792V26.0069C28.4375 26.8139 27.7861 27.4653 26.9792 27.4653H8.02083C7.21389 27.4653 6.5625 26.8139 6.5625 26.0069V15.0792L16.5958 20.4361C17.1597 20.7278 17.8403 20.7278 18.4042 20.4361L28.4375 15.0792Z" fill="#F3F3F1"/>
<path d="M11.6665 18.0474V6.5625H11.4234C10.3491 6.5625 9.479 7.43264 9.479 8.50694V16.8797L11.6665 18.0474Z" fill="#00B871"/>
<path d="M9.47916 16.4403L8.75 16.0514V13.9203C8.75 13.5781 8.92986 13.2601 9.22444 13.0851L9.47916 12.9335V11.6297L7.03694 13.0861C6.74236 13.2611 6.5625 13.579 6.5625 13.9213V16.0524L9.47916 17.6099V16.4403Z" fill="#D5DBE1"/>
<path d="M8.75 26.0069V17.219L6.5625 16.0514V26.0069C6.5625 26.8139 7.21389 27.4653 8.02083 27.4653H10.2083C9.40139 27.4653 8.75 26.8139 8.75 26.0069Z" fill="#D5DBE1"/>
<path d="M26.25 16.7222H24.7917V8.50695C24.7917 7.83709 24.2463 7.29167 23.5764 7.29167H11.4236C10.7537 7.29167 10.2083 7.83709 10.2083 8.50695V16.7222H8.75V8.50695C8.75 7.03209 9.94875 5.83334 11.4236 5.83334H23.5764C25.0513 5.83334 26.25 7.03209 26.25 8.50695V16.7222Z" fill="black"/>
<path d="M17.499 21.385C17.0731 21.385 16.6483 21.2839 16.2604 21.0826L6.22412 15.8424L6.89982 14.5493L16.9331 19.7896C17.287 19.9743 17.7129 19.9724 18.0668 19.7886L28.0981 14.5493L28.7738 15.8424L18.7405 21.0826C18.3526 21.2839 17.9258 21.385 17.499 21.385Z" fill="black"/>
<path d="M26.9793 28.1945H8.021C6.81544 28.1945 5.8335 27.2125 5.8335 26.0069V13.9757C5.8335 13.1892 6.25836 12.461 6.94183 12.0731L8.87655 10.9744L9.596 12.2432L7.66127 13.3418C7.43377 13.4711 7.29183 13.7142 7.29183 13.9757V26.0069C7.29183 26.4085 7.61947 26.7361 8.021 26.7361H26.9793C27.3809 26.7361 27.7085 26.4085 27.7085 26.0069V13.9757C27.7085 13.7132 27.5666 13.4701 27.3391 13.3418L25.4043 12.2432L26.1238 10.9744L28.0585 12.0731C28.742 12.461 29.1668 13.1892 29.1668 13.9757V26.0069C29.1668 27.2125 28.1849 28.1945 26.9793 28.1945Z" fill="black"/>
<path d="M12.8818 15.5556H10.6943V14.0972H12.8818C13.016 14.0972 13.1249 13.9883 13.1249 13.8542V9.72223H14.5832V13.8542C14.5832 14.7924 13.82 15.5556 12.8818 15.5556Z" fill="black"/>
<path d="M17.7432 15.5556H17.2571C16.3189 15.5556 15.5557 14.7924 15.5557 13.8542V11.4236C15.5557 10.4854 16.3189 9.72223 17.2571 9.72223H17.7432C18.6814 9.72223 19.4446 10.4854 19.4446 11.4236V13.8542C19.4446 14.7924 18.6814 15.5556 17.7432 15.5556ZM17.2571 11.1806C17.1229 11.1806 17.014 11.2895 17.014 11.4236V13.8542C17.014 13.9883 17.1229 14.0972 17.2571 14.0972H17.7432C17.8773 14.0972 17.9862 13.9883 17.9862 13.8542V11.4236C17.9862 11.2895 17.8773 11.1806 17.7432 11.1806H17.2571Z" fill="black"/>
<path d="M22.4873 15.5556H21.1457C20.7432 15.5556 20.4165 15.2289 20.4165 14.8264V10.4514C20.4165 10.0489 20.7432 9.72223 21.1457 9.72223H22.4873C23.4897 9.72223 24.3054 10.5379 24.3054 11.5403C24.3054 11.9525 24.1693 12.3317 23.9418 12.6379C24.1693 12.9422 24.3054 13.3194 24.3054 13.7278C24.3054 14.7399 23.4897 15.5556 22.4873 15.5556ZM21.8748 14.0972H22.4873C22.6857 14.0972 22.8471 13.9358 22.8471 13.7375C22.8471 13.5294 22.6857 13.3681 22.4873 13.3681H21.8748V14.0972ZM21.8748 11.9097H22.4873C22.6857 11.9097 22.8471 11.7483 22.8471 11.55C22.8471 11.342 22.6857 11.1806 22.4873 11.1806H21.8748V11.9097Z" fill="black"/>
</svg>
