<svg width="35" height="35" viewBox="0 0 35 35" fill="none" xmlns="http://www.w3.org/2000/svg">
<path d="M26.8554 30.9487C20.1305 30.9487 15.5125 34.4322 12.272 34.4322C9.03163 34.4322 2.22607 32.5694 2.22607 17.6624C2.22607 2.75527 11.3815 0.566803 14.9457 0.566803C31.6358 0.566803 38.7651 30.9487 26.8554 30.9487Z" fill="#EFEFEF"/>
<path d="M4.37484 18.4722C3.57081 18.4722 2.9165 17.8179 2.9165 17.0139C2.9165 16.2099 3.57081 15.5556 4.37484 15.5556C5.17886 15.5556 5.83317 16.2099 5.83317 17.0139C5.83317 17.8179 5.17886 18.4722 4.37484 18.4722ZM4.37484 16.5278C4.1065 16.5278 3.88873 16.7465 3.88873 17.0139C3.88873 17.2813 4.1065 17.5 4.37484 17.5C4.64317 17.5 4.86095 17.2813 4.86095 17.0139C4.86095 16.7465 4.64317 16.5278 4.37484 16.5278Z" fill="#A4AFC1"/>
<path d="M24.3057 8.50694C24.3057 7.43264 23.4356 6.5625 22.3613 6.5625H12.1529C11.0786 6.5625 10.2085 7.43264 10.2085 8.50694V26.4931C10.2085 27.5674 11.0786 28.4375 12.1529 28.4375H22.3613C23.4356 28.4375 24.3057 27.5674 24.3057 26.4931V8.50694Z" fill="#F3F3F1"/>
<path d="M12.6387 6.5625C13.4437 6.5625 14.097 7.21583 14.097 8.02083C14.097 8.5575 14.5326 8.99306 15.0692 8.99306H19.4442C19.9809 8.99306 20.4165 8.5575 20.4165 8.02083C20.4165 7.21583 21.0698 6.5625 21.8748 6.5625H12.6387Z" fill="#2FDF84"/>
<path d="M12.6387 26.4931V8.50694C12.6387 7.43264 13.5088 6.5625 14.5831 6.5625H12.3956C11.3213 6.5625 10.4512 7.43264 10.4512 8.50694V26.4931C10.4512 27.5674 11.3213 28.4375 12.3956 28.4375H14.5831C13.5088 28.4375 12.6387 27.5674 12.6387 26.4931Z" fill="#D5DBE1"/>
<path d="M16.5277 8.02083C16.5277 7.21583 15.8743 6.5625 15.0693 6.5625H12.8818C13.6868 6.5625 14.3402 7.21583 14.3402 8.02083C14.3402 8.5575 14.7757 8.99306 15.3124 8.99306H17.4999C16.9632 8.99306 16.5277 8.5575 16.5277 8.02083Z" fill="#00B871"/>
<path d="M19.6874 9.72224H15.3124C14.3742 9.72224 13.611 8.95904 13.611 8.02085C13.611 7.61932 13.2843 7.29168 12.8818 7.29168V5.83334C14.0884 5.83334 15.0693 6.81529 15.0693 8.02085C15.0693 8.15501 15.1782 8.2639 15.3124 8.2639H19.6874C19.8216 8.2639 19.9304 8.15501 19.9304 8.02085C19.9304 6.81529 20.9114 5.83334 22.1179 5.83334V7.29168C21.7154 7.29168 21.3888 7.61932 21.3888 8.02085C21.3888 8.95904 20.6256 9.72224 19.6874 9.72224Z" fill="black"/>
<path d="M22.6041 29.1667H12.3958C10.9209 29.1667 9.72217 27.9679 9.72217 26.4931V8.50696C9.72217 7.03209 10.9209 5.83334 12.3958 5.83334H22.6041C24.079 5.83334 25.2777 7.03209 25.2777 8.50696V26.4931C25.2777 27.9679 24.079 29.1667 22.6041 29.1667ZM12.3958 7.29168C11.7259 7.29168 11.1805 7.83709 11.1805 8.50696V26.4931C11.1805 27.1629 11.7259 27.7084 12.3958 27.7084H22.6041C23.274 27.7084 23.8194 27.1629 23.8194 26.4931V8.50696C23.8194 7.83709 23.274 7.29168 22.6041 7.29168H12.3958Z" fill="black"/>
</svg>
