<svg width="19" height="19" viewBox="0 0 19 19" fill="none" xmlns="http://www.w3.org/2000/svg">
<path d="M9.50016 9.50011C10.8117 9.50011 11.9311 9.03608 12.8588 8.10841C13.7865 7.18075 14.2504 6.06131 14.2504 4.74995C14.2504 3.43879 13.7865 2.31932 12.8588 1.39144C11.9308 0.463812 10.8114 0 9.50016 0C8.18897 0 7.06932 0.463812 6.1417 1.39144C5.2139 2.31932 4.75 3.43875 4.75 4.74995C4.75 6.06131 5.2139 7.18075 6.1417 8.10841C7.06958 9.03608 8.18892 9.50011 9.50016 9.50011Z" fill="#304C94"/>
<path d="M18.1651 14.516C18.1361 14.0997 18.0783 13.6501 17.9919 13.1676C17.9053 12.6852 17.7959 12.238 17.6639 11.8255C17.5319 11.4133 17.3546 11.0112 17.1319 10.6194C16.9094 10.2277 16.6537 9.89379 16.3649 9.61741C16.0761 9.34111 15.7237 9.12067 15.3075 8.95577C14.8908 8.79091 14.431 8.70833 13.928 8.70833C13.8538 8.70833 13.6806 8.79697 13.4084 8.97431C13.1365 9.15165 12.8293 9.34961 12.4871 9.56823C12.1449 9.78647 11.6993 9.98456 11.1511 10.1616C10.6027 10.3389 10.0523 10.4276 9.4996 10.4276C8.9471 10.4276 8.39668 10.3389 7.84834 10.1616C7.30004 9.98456 6.85459 9.78647 6.51236 9.56823C6.17016 9.34961 5.86302 9.15169 5.59093 8.97431C5.31871 8.79697 5.14562 8.70833 5.0714 8.70833C4.56838 8.70833 4.10859 8.79091 3.69218 8.95577C3.27568 9.12067 2.92318 9.34129 2.63449 9.61741C2.34589 9.89379 2.09022 10.2277 1.86765 10.6194C1.64508 11.0112 1.46779 11.4134 1.33582 11.8255C1.20389 12.238 1.09457 12.6852 1.00801 13.1676C0.921354 13.6501 0.863643 14.0994 0.834744 14.516C0.805888 14.9326 0.791504 15.3594 0.791504 15.7965C0.791504 16.7859 1.09258 17.5675 1.69452 18.1406C2.29659 18.7136 3.09657 19 4.09438 19H14.9058C15.9035 19 16.7034 18.7136 17.3056 18.1406C17.9079 17.5675 18.2087 16.786 18.2087 15.7965C18.2087 15.3594 18.1943 14.9326 18.1651 14.516Z" fill="#304C94"/>
</svg>
